<?xml version="1.0" encoding="utf-8"?>
<!-- Svg Vector Icons : http://www.onlinewebfonts.com/icon -->
<!DOCTYPE svg PUBLIC "-//W3C//DTD SVG 1.1//EN" "http://www.w3.org/Graphics/SVG/1.1/DTD/svg11.dtd">
<svg version="1.1" xmlns="http://www.w3.org/2000/svg" xmlns:xlink="http://www.w3.org/1999/xlink" x="0px" y="0px" viewBox="0 0 1000 1000" enable-background="new 0 0 1000 1000" xml:space="preserve">
<metadata> Svg Vector Icons : http://www.onlinewebfonts.com/icon </metadata>
<g><path d="M500,10C229.4,10,10,229.4,10,500c0,270.6,219.4,490,490,490c270.6,0,490-219.4,490-490C990,229.4,770.6,10,500,10z M785.4,785.4c-37.1,37.1-80.3,66.2-128.3,86.5c-49.7,21-102.5,31.7-157.1,31.7c-54.5,0-107.4-10.7-157.1-31.7c-48-20.3-91.2-49.4-128.3-86.5c-37.1-37.1-66.2-80.3-86.5-128.3c-21-49.7-31.7-102.5-31.7-157.1s10.7-107.4,31.7-157.1c20.3-48,49.4-91.2,86.5-128.3c37.1-37.1,80.3-66.2,128.3-86.5c49.7-21,102.5-31.7,157.1-31.7c54.5,0,107.4,10.7,157.1,31.7c48,20.3,91.2,49.4,128.3,86.5c37.1,37.1,66.2,80.3,86.5,128.3c21,49.7,31.7,102.5,31.7,157.1c0,54.5-10.7,107.4-31.7,157.1C851.6,705.1,822.5,748.3,785.4,785.4z"/><path d="M608.8,258.9c-16.9-16.9-44.2-16.9-61.1,0L306.5,500l241.1,241.1c16.9,16.9,44.2,16.9,61.1,0c16.9-16.9,16.9-44.2,0-61.1l-180-180l180-180C625.7,303.1,625.7,275.8,608.8,258.9z"/></g>
</svg>