<svg id="Слой_1" data-name="Слой 1" xmlns="http://www.w3.org/2000/svg" xmlns:xlink="http://www.w3.org/1999/xlink" viewBox="0 0 841.89 265.03">
  <defs>
    <clipPath id="clip-path" transform="translate(0 -154.03)">
      <path d="M49.87,234.7H84.16l87.49,112.45A8.83,8.83,0,0,1,173,351a5.4,5.4,0,0,1-5.28,5.4l0,.06h-35.1L45.49,244.1l0-.11a5.41,5.41,0,0,1-1.63-3.87c0-5.45,5.94-5.42,6-5.42" style="fill: none;clip-rule: evenodd"/>
    </clipPath>
    <linearGradient id="Безымянный_градиент_3" data-name="Безымянный градиент 3" x1="56.14" y1="83.04" x2="165.03" y2="204.8" gradientUnits="userSpaceOnUse">
      <stop offset="0" stop-color="#f59c00"/>
      <stop offset="0.5" stop-color="#fdce89"/>
      <stop offset="1" stop-color="#f59c00"/>
    </linearGradient>
  </defs>
  <title>лого градиент горизонтальный</title>
  <rect width="841.89" height="265.03" style="fill: none"/>
  <g>
    <path d="M468.27,303.15c0,5.88-5.34,9.89-12.46,9.89-5.08,0-9.09-2.49-9.09-7,0-4.72,4-7.48,10.78-7.48a30.74,30.74,0,0,1,10.77,1.87Zm10.42,17V292.29c0-12.56-6.76-19.86-20.66-19.86a40.27,40.27,0,0,0-17.9,3.92l2.94,8.64a32.73,32.73,0,0,1,13.45-2.94c7.48,0,11.58,3.56,11.58,10.06V293a39.61,39.61,0,0,0-13-2c-10.95,0-19.06,5-19.06,15.41,0,9.62,7.84,14.7,16.75,14.7,7.12,0,12-2.94,15.23-6.77v5.79Zm-74,0h10.87V282.4h15.14v-9.26H389.54v9.26h15.14Zm-62.88,0h10.69V308.85l7.66-8.1,14.25,19.42h12.74l-19.77-27.26,18.25-19.77H373l-20.49,22.53V273.14H341.8Zm-23.24-17c0,5.88-5.35,9.89-12.47,9.89-5.08,0-9.09-2.49-9.09-7,0-4.72,4-7.48,10.78-7.48a30.76,30.76,0,0,1,10.78,1.87Zm10.42,17V292.29c0-12.56-6.77-19.86-20.66-19.86a40.31,40.31,0,0,0-17.91,3.92l2.94,8.64a32.8,32.8,0,0,1,13.45-2.94c7.48,0,11.58,3.56,11.58,10.06V293a39.5,39.5,0,0,0-13-2c-11,0-19.06,5-19.06,15.41,0,9.62,7.83,14.7,16.74,14.7,7.13,0,12-2.94,15.23-6.77v5.79Zm-95.3,0h10.78v-19h20.75v19H276v-47H265.21V292.2H244.46V273.14H233.68Z" transform="translate(0 -154.03)" style="fill: #0076bd"/>
    <path d="M785.84,319.45v-40H769.37v-6h39.9v6H792.79v40Zm-67.33,0v-46h6.86v36.42l27.34-36.42h6.68v46h-6.86V283L725.1,319.45Zm-48-6.05h24.76V279.46H675.94v6.42Q675.94,303.24,670.51,313.4Zm-12.29,17.54V313.4h5q6.15-11.22,6.15-32v-8h32.77v40h7L708,330.94h-5.7V319.45H665.07l-1.24,11.49Zm-41.86-37.23H646a19.33,19.33,0,0,0-4.41-11.08,12.87,12.87,0,0,0-10.29-4.41,13.43,13.43,0,0,0-10.06,4.36A18.31,18.31,0,0,0,616.36,293.71Zm16,26.81a22.06,22.06,0,0,1-16.34-6.72q-6.64-6.74-6.64-17.32a24.54,24.54,0,0,1,6.32-17.06,20.39,20.39,0,0,1,15.77-7q9.88,0,15.67,6.94T653,296.83c0,.89,0,1.69-.09,2.41H616.36a16.66,16.66,0,0,0,5.3,11.17,15.71,15.71,0,0,0,10.91,4.14,19.48,19.48,0,0,0,14.51-6.5l4.28,3.83A24.52,24.52,0,0,1,632.39,320.52Zm-56-6.23A15.34,15.34,0,0,0,588,309.43q4.62-4.85,4.63-13,0-7.93-4.72-12.87a15.29,15.29,0,0,0-11.49-4.95,15.89,15.89,0,0,0-11.67,5.08,18.92,18.92,0,0,0,0,25.61A16,16,0,0,0,576.37,314.29ZM553.12,333.7V273.41H560v9.26q6.94-10.25,17.64-10.24A21.18,21.18,0,0,1,593,279q6.6,6.55,6.59,17.51,0,10.77-6.59,17.36a21.07,21.07,0,0,1-15.4,6.59q-10.87,0-17.64-9.79V333.7Zm-50.49-14.25v-46h6.85V300l25.21-26.54h8.46l-19.24,19.95,19.77,26.09h-8.1l-16.39-21.1-9.71,10v11.13Z" transform="translate(0 -154.03)" style="fill: #0076bd"/>
    <g style="clip-path: url(#clip-path)">
      <rect x="43.91" y="80.64" width="129.08" height="121.78" style="fill: url(#Безымянный_градиент_3)"/>
    </g>
    <path d="M173,300.42l-.06-59.53a5.69,5.69,0,0,0,.06-.83,5.41,5.41,0,0,0-5.41-5.41H121.21Z" transform="translate(0 -154.03)" style="fill: #0076bd;fill-rule: evenodd"/>
    <path d="M43.91,290.68,44,350.21a4.57,4.57,0,0,0-.07.83,5.41,5.41,0,0,0,5.41,5.41H95.7Z" transform="translate(0 -154.03)" style="fill: #0076bd;fill-rule: evenodd"/>
  </g>
</svg>
